{"title":"Agnez Mo Ft. Timbaland &amp; T.I. - Coke Bottle [Music Video] 10","uid":10043482,"size":138222375,"categoryP":"video","categoryS":"music_videos","magnet":"?xt=urn:btih:2fab94bb0188f9cf30873494b1523f3d1e00b698&amp;dn=Agnez+Mo+Ft.+Timbaland+%26amp%3B+T.I.+-+Coke+Bottle+%5BMusic+Video%5D+10&amp;tr=udp%3A%2F%2Ftracker.openbittorrent.com%3A80&amp;tr=udp%3A%2F%2Fopen.demonii.com%3A1337&amp;tr=udp%3A%2F%2Ftracker.coppersurfer.tk%3A6969&amp;tr=udp%3A%2F%2Fexodus.desync.com%3A6969","seeders":1,"leechers":0,"uploader":"Sbyky","files":1,"time":1398500142,"description":"\n\nGeneral\nComplete name                            : Agnez Mo Ft. Timbaland &amp; T.I. - Coke Bottle [Music Video] 1080p [Sbyky].MP4\nFormat                                   : MPEG-4\nFormat profile                           : Base Media\nCodec ID                                 : isom\nFile size                                : 132 MiB\nDuration                                 : 4mn 24s\nOverall bit rate mode                    : Variable\nOverall bit rate                         : 4 180 Kbps\nEncoded date                             : UTC 2014-03-27 20:31:24\nTagged date                              : UTC 2014-03-27 20:31:24\n\nVideo\nID                                       : 1\nFormat                                   : AVC\nFormat/Info                              : Advanced Video Codec\nFormat profile                           : &lt;a class=&quot;__cf_email__&quot; href=&quot;/cdn-cgi/l/email-protection&quot; data-cfemail=&quot;7a32131d123a364e544a&quot;&gt;[email&amp;#160;protected]&lt;/a&gt;&lt;script cf-hash='f9e31' type=&quot;text/javascript&quot;&gt;\n/* &lt;![CDATA[ */!function(){try{var t=&quot;currentScript&quot;in document?document.currentScript:function(){for(var t=document.getElementsByTagName(&quot;script&quot;),e=t.length;e--;)if(t[e].getAttribute(&quot;cf-hash&quot;))return t[e]}();if(t&amp;&amp;t.previousSibling){var e,r,n,i,c=t.previousSibling,a=c.getAttribute(&quot;data-cfemail&quot;);if(a){for(e=&quot;&quot;,r=parseInt(a.substr(0,2),16),n=2;a.length-n;n+=2)i=parseInt(a.substr(n,2),16)^r,e+=String.fromCharCode(i);e=document.createTextNode(e),c.parentNode.replaceChild(e,c)}}}catch(u){}}();/* ]]&gt; */&lt;/script&gt;\nFormat settings, CABAC                   : Yes\nFormat settings, ReFrames                : 2 frames\nCodec ID                                 : avc1\nCodec ID/Info                            : Advanced Video Coding\nDuration                                 : 4mn 24s\nBit rate                                 : 4 051 Kbps\nWidth                                    : 1 920 pixels\nHeight                                   : 1 080 pixels\nDisplay aspect ratio                     : 16:9\nFrame rate mode                          : Variable\nFrame rate                               : 23.976 fps\nMinimum frame rate                       : 23.974 fps\nMaximum frame rate                       : 24.122 fps\nColor space                              : YUV\nChroma subsampling                       : 4:2:0\nBit depth                                : 8 bits\nScan type                                : Progressive\nBits/(Pixel*Frame)                       : 0.081\nStream size                              : 128 MiB (97%)\nEncoded date                             : UTC 2014-03-27 20:31:24\nTagged date                              : UTC 2014-03-27 20:31:24\n\nAudio\nID                                       : 2\nFormat                                   : AAC\nFormat/Info                              : Advanced Audio Codec\nFormat profile                           : LC\nCodec ID                                 : 40\nDuration                                 : 4mn 24s\nBit rate mode                            : Variable\nBit rate                                 : 126 Kbps\nChannel(s)                               : 2 channels\nChannel positions                        : Front: L R\nSampling rate                            : 44.1 KHz\nCompression mode                         : Lossy\nStream size                              : 3.96 MiB (3%)\nEncoded date                             : UTC 2014-03-27 20:32:07\nTagged date                              : UTC 2014-03-27 20:32:07\n\nShared By Sbyky\n","torrent":{"xt":"urn:btih:2fab94bb0188f9cf30873494b1523f3d1e00b698","amp;dn":"Agnez+Mo+Ft.+Timbaland+%26amp%3B+T.I.+-+Coke+Bottle+%5BMusic+Video%5D+10","amp;tr":["udp%3A%2F%2Ftracker.openbittorrent.com%3A80","udp%3A%2F%2Fopen.demonii.com%3A1337","udp%3A%2F%2Ftracker.coppersurfer.tk%3A6969","udp%3A%2F%2Fexodus.desync.com%3A6969"],"infoHash":"2fab94bb0188f9cf30873494b1523f3d1e00b698","infoHashBuffer":{"type":"Buffer","data":[47,171,148,187,1,136,249,207,48,135,52,148,177,82,63,61,30,0,182,152]},"announce":[],"urlList":[]}}